<svg xmlns="http://www.w3.org/2000/svg" width="500" height="200" viewBox="0 0 500 200"><rect width="100%" height="100%" fill="#39af73"/><path fill="#FFF" d="M165.825 88.475c10 0 14.85-5 14.85-10.85 0-12.85-20.35-8.4-20.35-14.85 0-2.2 1.85-4 6.65-4 3.1 0 6.45.9 9.7 2.75l2.5-6.15c-3.25-2.05-7.75-3.1-12.15-3.1-9.95 0-14.75 4.95-14.75 10.9 0 13 20.35 8.5 20.35 15.05 0 2.15-1.95 3.75-6.75 3.75-4.2 0-8.6-1.5-11.55-3.65l-2.75 6.1c3.1 2.4 8.7 4.05 14.25 4.05Zm30.7-27.9c-4.3 0-8.65 1.15-11.6 3.25l2.8 5.45c1.95-1.55 4.9-2.5 7.75-2.5 4.2 0 6.2 1.95 6.2 5.3h-6.2c-8.2 0-11.55 3.3-11.55 8.05 0 4.65 3.75 8.15 10.05 8.15 3.95 0 6.75-1.3 8.2-3.75v3.35h7.3v-15.35c0-8.15-4.75-11.95-12.95-11.95Zm-.6 22.45c-2.75 0-4.4-1.3-4.4-3.25 0-1.8 1.15-3.15 4.8-3.15h5.35v2.75c-.9 2.45-3.15 3.65-5.75 3.65Zm55.05-22.45c-4.05 0-7.55 1.65-9.7 4.4-1.9-2.95-5.1-4.4-8.85-4.4-3.45 0-6.45 1.2-8.45 3.5v-3.1h-7.45v26.9h7.8v-13.5c0-4.8 2.45-7.05 5.9-7.05 3.25 0 5.1 2 5.1 6.35v14.2h7.8v-13.5c0-4.8 2.45-7.05 5.95-7.05 3.15 0 5.1 2 5.1 6.35v14.2h7.8v-15.4c0-8.2-4.6-11.9-11-11.9Zm33.9 0c-3.6 0-6.5 1.15-8.45 3.5v-3.1h-7.45v36.6h7.8v-12.55c2 2.2 4.75 3.25 8.1 3.25 7.55 0 13.4-5.4 13.4-13.85s-5.85-13.85-13.4-13.85Zm-1.35 21.3c-3.9 0-6.85-2.8-6.85-7.45s2.95-7.45 6.85-7.45c3.9 0 6.85 2.8 6.85 7.45s-2.95 7.45-6.85 7.45Zm19.95 6h7.8v-37.1h-7.8Zm41.4-13.35c0-8.65-6.1-13.95-14-13.95-8.2 0-14.35 5.8-14.35 13.85 0 8 6.05 13.85 15.35 13.85 4.85 0 8.6-1.5 11.1-4.35l-4.15-4.5c-1.85 1.75-3.9 2.6-6.75 2.6-4.1 0-6.95-2.05-7.7-5.4h20.35c.05-.65.15-1.5.15-2.1Zm-13.95-8.05c3.5 0 6.05 2.2 6.6 5.6h-13.25c.55-3.45 3.1-5.6 6.65-5.6Zm-168.6 47.35h-15.15v35h8.1v-9.65h7.05c9.35 0 15.2-4.85 15.2-12.65 0-7.85-5.85-12.7-15.2-12.7Zm-.45 18.75h-6.6v-12.15h6.6c4.95 0 7.45 2.25 7.45 6.1 0 3.8-2.5 6.05-7.45 6.05Zm28.3-7.1v-3.55h-7.45v26.9h7.8v-12.7c0-5.15 2.85-7.5 7.15-7.5.6 0 1.1.05 1.75.1v-7.2c-4.15 0-7.35 1.35-9.25 3.95Zm26.45 23.75c8.55 0 14.75-5.75 14.75-13.85s-6.2-13.85-14.75-13.85-14.8 5.75-14.8 13.85 6.25 13.85 14.8 13.85Zm0-6.4c-3.9 0-6.9-2.8-6.9-7.45s3-7.45 6.9-7.45c3.9 0 6.85 2.8 6.85 7.45s-2.95 7.45-6.85 7.45Zm39.55-31.1v13.05c-1.95-2.2-4.75-3.25-8.05-3.25-7.6 0-13.45 5.4-13.45 13.85s5.85 13.85 13.45 13.85c3.6 0 6.45-1.15 8.4-3.5v3.1h7.45v-37.1Zm-6.7 31.1c-3.9 0-6.9-2.8-6.9-7.45s3-7.45 6.9-7.45c3.85 0 6.85 2.8 6.85 7.45s-3 7.45-6.85 7.45Zm41-20.9v13.3c0 4.95-2.6 7.25-6.2 7.25-3.45 0-5.45-2-5.45-6.5v-14.05h-7.8v15.2c0 8.3 4.75 12.1 11.5 12.1 3.3 0 6.3-1.25 8.35-3.6v3.2h7.4v-26.9Zm28.05 27.3c5.65 0 10.1-2.5 12.05-6.8l-6.05-3.3c-1.45 2.6-3.6 3.7-6.05 3.7-3.95 0-7.05-2.75-7.05-7.45s3.1-7.45 7.05-7.45c2.45 0 4.6 1.15 6.05 3.7l6.05-3.25c-1.95-4.4-6.4-6.85-12.05-6.85-8.75 0-15 5.75-15 13.85s6.25 13.85 15 13.85Zm32.2-7.2c-.85.65-2 1-3.15 1-2.1 0-3.35-1.25-3.35-3.55v-10.95h6.7v-6h-6.7v-6.55h-7.8v6.55h-4.15v6h4.15v11.05c0 6.4 3.7 9.65 10.05 9.65 2.4 0 4.75-.55 6.35-1.7Z"/></svg>